<svg id="Capa_1" enable-background="new 0 0 512.007 512.007" height="512" viewBox="0 0 512.007 512.007" width="512" xmlns="http://www.w3.org/2000/svg"><g><g><g><ellipse cx="198.925" cy="170.838" fill="#fc5461" rx="116" ry="116.017"/><g fill="#dd3652"><path d="m213.925 265.852c-38.739 0-72.798-20.03-92.395-50.297-1.096-1.692-1.085-3.869.044-5.54 7.611-11.271 12.059-24.853 12.059-39.477 0-19.553-7.946-37.246-20.782-50.034-1.429-1.423-1.87-3.555-1.123-5.428 4.247-10.643 10.104-20.469 17.277-29.171-9.498 7.831-27.353 25.473-29.065 24.421-10.791 17.619-17.014 38.338-17.014 60.513 0 21.994 6.12 42.558 16.749 60.083 1.715-1.044 36.237 55.934 99.251 55.934 51.237 0 64.746-21.607 84.921-46.086-19.008 15.67-43.366 25.082-69.922 25.082z"/><path d="m189.243 175.651h125.576c.065-1.597.107-3.2.107-4.812 0-17.589-3.921-34.259-10.924-49.196h-114.759c-8.284 0-15 6.717-15 15.002v24.004c0 8.285 6.715 15.002 15 15.002z"/><path d="m314.068 184.958h-42.565c-8.284 0-15 6.717-15 15.002v24.004c0 8.285 6.716 15.002 15 15.002h21.315c11.291-15.539 18.821-33.985 21.25-54.008z"/></g></g><g><g><path d="m37.912 19.502v302.072c0 5.524 4.477 10.001 10 10.001l300.496-.527c5.523 0 13.531-1.95 13.531-7.474v-84.608l-3.473-4.013.473-46.799 3-3.196v-9.308l-3.465-7.57.465-41.318 3-5.12v-104.141c0-5.524-4.477-10.001-10-10.001h-301.027l-3 2c-5.523 0-10 4.478-10 10.002zm161.013 260.552c-39.744 0-74.542-21.177-93.73-52.863 0 0-18.235-16.869-18.235-53.698v-9.017c0-33.05 18.235-50.591 18.235-50.591 19.188-31.687 53.986-52.863 93.729-52.863 42.904 0 80.042 24.681 98.002 60.619.301.603 2.6 1.207 2.891 1.815 6.8 14.262 10.607 32.228 10.607 49.082 0 0-2.042 1.418-2.12 3.113-.144 3.139-.42 6.243-.823 9.308-.128.971 1.742 1.938 1.604 2.9-2.582 17.98-9.111 34.502-19.592 48.441-.678.901-4.372 1.789-5.076 2.669-20.067 25.045-50.905 41.085-85.492 41.085z" fill="#fa5e97"/><path d="m53.912 318.573c-1.657 0-3-1.343-3-3v-71.976c0-1.812 1.591-3.195 3.389-2.969 2.851.358 5.754.55 8.703.55 15.818 0 30.421-5.202 42.194-13.988-10.009-16.529-15.772-35.917-15.772-56.652 0-20.735 5.763-40.123 15.772-56.652-11.774-8.786-26.376-13.988-42.195-13.988-2.949 0-5.851.192-8.703.55-1.798.226-3.389-1.157-3.389-2.969v-89.979h-5c-5.523 0-10 4.478-10 10.001v87.79 130.493 87.79c0 5.524 4.477 10.001 10 10.001h306.027c5.523 0 10-4.478 10-10.001v-5.001z" fill="#d94f88"/></g><g fill="#d94f88"><path d="m308.305 175.651h53.634v-54.008l-65.011-.002c7.356 14.718 11.498 31.323 11.498 48.897-.001 1.714-.043 3.418-.121 5.113z"/><path d="m361.939 184.958h-54.457c-2.667 20.275-10.88 38.803-23.065 54.01l77.521-.002v-54.008z"/></g></g><g><path d="m341.45 279.274-83.255 124.616c-9.048 13.279-5.319 29.015 10.748 29.015l164.359 1.499c22.255.404 37.707-4.848 39.88-13.116 1.379-5.247.669-11.111-2.844-16.267l-91.807-134.741c-2.056-3.018-4.734-5.251-7.709-6.705-8.51-4.162-23.489 7.066-29.372 15.699z" fill="#ffbf54"/><path d="m315.806 418.557v-29.641c0-8.285-6.716-15.002-15-15.002-2.193 0-3.491-2.455-2.256-4.268l72.272-106.071c-8.51-4.161-19.464-1.928-25.346 6.705l-91.807 134.741c-9.047 13.279.461 31.268 16.527 31.268h183.614c9.828 0 17.198-6.734 19.371-15.001l-154.646-.001c-1.507 0-2.729-1.222-2.729-2.73z" fill="#ffa442"/></g><g><path d="m192.243 162.475h238.727c2.761 0 5-2.239 5-5.001l2-9.001v-10.655c0-2.762-2.239-5.001-5-5.001h-232.728l-8 2c-2.761 0-5 2.239-5 5.001v17.656c.001 2.762 2.239 5.001 5.001 5.001z" fill="#8e73ff"/><path d="m205.243 148.473c-2.761 0-5-2.239-5-5.001v-10.655h-10c-2.761 0-5 2.239-5 5.001v21.656c0 2.762 2.239 5.001 5 5.001h242.727c2.761 0 5-2.239 5-5.001v-11.002h-232.727z" fill="#7d67e5"/></g><g><path d="m274.503 225.791h223c2.761 0 5-2.239 5-5.001l2-8.001v-11.655c0-2.762-2.239-5.001-5-5.001h-217l-8 2c-2.761 0-5 2.239-5 5.001v17.656c0 2.762 2.239 5.001 5 5.001z" fill="#8e73ff"/><path d="m287.503 212.789c-2.761 0-5-2.239-5-5.001v-11.655h-10c-2.761 0-5 2.239-5 5.001v21.656c0 2.762 2.239 5.001 5 5.001h227c2.761 0 5-2.239 5-5.001v-10.001z" fill="#7d67e5"/></g><g><path d="m99.811 452.799h195.995c2.761 0 5-2.239 5-5.001l2-8.001v-47.881c0-2.762-2.239-5.001-5-5.001h-189.995l-8 2c-2.761 0-5 2.239-5 5.001v53.881c0 2.763 2.238 5.002 5 5.002z" fill="#8e73ff"/><path d="m112.811 439.797c-2.761 0-5-2.239-5-5.001v-47.881h-10c-2.761 0-5 2.239-5 5.001v57.882c0 2.762 2.239 5.001 5 5.001h199.995c2.761 0 5-2.239 5-5.001v-10.001z" fill="#7d67e5"/></g><g><path d="m118.503 170.538c0-30.656-24.848-55.508-55.5-55.508-11.492 0-22.168 3.493-31.025 9.476 0 0-20.422 19.355-20.422 38.517 0 30.656 30.284 59.073 60.936 59.073 19.157 0 36.536-20.528 36.536-20.528 5.985-8.86 9.475-19.534 9.475-31.03z" fill="#8e73ff"/><path d="m78.003 211.044c-30.652 0-55.5-24.852-55.5-55.508 0-11.494 3.493-22.172 9.475-31.03-14.766 9.975-24.475 26.869-24.475 46.032 0 30.656 24.848 55.508 55.5 55.508 19.16 0 36.052-9.71 46.025-24.479-8.856 5.983-19.533 9.477-31.025 9.477z" fill="#7d67e5"/></g><g><g><path d="m392.897 89.161c-2.854 0-26.824-15.299-29.426-16.917l-1.561.17-12.954 8.05-12.484 6.911c-5.117 3.181-35.543-11.885-40.66-15.066l-1.775.107-12.966 8.058-4.791 2.72c-5.118 3.182-22.203 4.744-27.319 1.564l-29.745-19.458c-7.422-4.617-9.722-11.423-5.106-18.846 2.831-4.555 6.212-8.206 11.187-8.483 3.136-.174 6.354.575 9.224 2.359l23.991 14.922c.97.603 2.198.603 3.168 0l23.994-14.922c5.117-3.183 11.597-3.182 16.715 0l23.993 14.923c.97.603 2.198.603 3.168 0l23.997-14.923c5.117-3.182 11.596-3.182 16.714 0l33.541 20.858c7.302 4.541 10.005 14.071 5.796 21.496-.082.145-2.062.844-2.15.987-2.985 4.894-9.222 5.49-14.551 5.49z" fill="#f7f3f1"/></g><g fill="#eae2df"><path d="m408.715 82.706c-2.854 0-5.74-.771-8.342-2.389l-22.942-14.266c-1.617-1.005-3.664-1.005-5.28 0l-10.241 6.362 25.577 15.905c2.602 1.618 5.488 2.389 8.342 2.389 5.288 0 10.457-2.651 13.455-7.474.113-.182.211-.366.316-.55-.292.017-.592.023-.885.023z"/><path d="m264.625 80.317-33.933-21.105c-7.238-4.502-9.563-13.895-5.394-21.243-4.976.277-9.743 2.888-12.574 7.443-4.616 7.423-2.341 17.184 5.082 21.801l33.933 21.105c5.116 3.18 11.597 3.182 16.715 0l12.617-7.846c-5.076 3.019-11.418 2.971-16.446-.155z"/><path d="m332.495 80.317-22.937-14.265c-1.617-1.005-3.664-1.005-5.281 0l-10.241 6.362 25.572 15.904c5.116 3.181 11.597 3.181 16.714 0l12.633-7.856c-5.076 3.029-11.427 2.985-16.46-.145z"/></g></g><g><g><path d="m136.557 488.156c0-2.854 4.872-12.528 6.489-15.13l5.246-8.702 5.913-9.526-13.372-24.332c-3.181-5.118-5.549-12.187-2.368-17.304l9.828-16.726 5.911-9.521-14.136-25.097c-3.182-5.119-.69-18.376 2.489-23.493l5.736-9.769 11.108-17.879c4.616-7.423 14.376-9.699 21.798-5.083 7.425 4.616 9.698 14.376 5.083 21.801l-14.92 23.995c-.603.97-.603 2.199 0 3.169l14.92 23.997c3.183 5.118 3.182 11.599 0 16.717l-14.921 23.997c-.603.97-.603 2.199 0 3.169l14.921 24.001c3.182 5.118 3.182 11.598 0 16.716l-11.28 18.145-2.806 4.279c-4.615 7.424-14.702 23.833-28.166 16.032-4.914-2.846-7.473-8.167-7.473-13.456z" fill="#f7f3f1"/></g><g fill="#eae2df"><path d="m146.032 467.945-7.734 12.44c-1.618 2.602-2.388 5.489-2.388 8.343 0 5.33 2.691 10.539 7.585 13.527 7.483 4.568 17.302 1.895 21.931-5.551l9.575-15.401c-4.681 7.212-14.285 9.388-21.618 4.827-4.822-2.998-7.472-8.168-7.472-13.457 0-2.854.764-5.745 2.382-8.347z"/><path d="m138.299 412.496c-3.181 5.117-3.181 11.598 0 16.717l15.906 25.586 8.358-13.415c1.005-1.617 1.005-3.664 0-5.281l-14.264-22.946c-3.181-5.118-3.187-11.604-.006-16.721z"/><path d="m162.562 373.501c1.005-1.617 1.005-3.664 0-5.281l-14.263-22.941c-3.182-5.119-3.186-11.604-.006-16.721l11.272-18.115c-.052.081-.113.154-.164.236l-21.102 33.938c-3.18 5.117-3.182 11.599 0 16.718l15.905 25.582z"/></g></g></g><path d="m499.503 188.605h-40.689c-4.142 0-7.5 3.357-7.5 7.5s3.358 7.5 7.5 7.5h38.189v16.653h-222v-16.653h148.811c4.142 0 7.5-3.357 7.5-7.5s-3.358-7.5-7.5-7.5h-54.375v-16.653h63.531c6.893 0 12.5-5.607 12.5-12.5v-21.653c0-6.893-5.607-12.5-12.5-12.5h-63.531v-39.382l14.086 8.758c3.703 2.304 7.957 3.521 12.303 3.521 8.126 0 15.538-4.117 19.825-11.013 6.792-10.923 3.431-25.335-7.493-32.126l-33.939-21.102c-1.529-.951-3.135-1.701-4.783-2.269v-14.186c0-9.649-7.851-17.5-17.5-17.5h-205.523c-4.142 0-7.5 3.357-7.5 7.5s3.358 7.5 7.5 7.5h205.524c1.378 0 2.5 1.121 2.5 2.5v14.165c-1.672.571-3.301 1.327-4.851 2.29l-21.621 13.443-21.618-13.443c-7.599-4.725-17.039-4.725-24.635 0l-21.617 13.442-21.616-13.442c-5.291-3.29-11.548-4.326-17.615-2.908-6.069 1.414-11.223 5.108-14.511 10.399-2.304 3.704-3.497 7.882-3.522 12.136-1.303-.043-2.606-.069-3.908-.069-43.805 0-83.675 24.425-103.743 62.866-9.425-5.624-20.429-8.866-32.179-8.866-6.839 0-13.421 1.11-19.592 3.135v-93.148c0-1.379 1.122-2.5 2.5-2.5h65.503c4.142 0 7.5-3.357 7.5-7.5s-3.358-7.5-7.5-7.5h-65.502c-9.649 0-17.5 7.851-17.5 17.5v100.398c-17.097 11.278-28.408 30.646-28.408 52.616s11.311 41.338 28.408 52.616v100.398c0 9.649 7.851 17.5 17.5 17.5h85.776c-4.468 7.524-4.395 16.755.242 24.214l8.779 14.118h-42.898c-6.893 0-12.5 5.607-12.5 12.5v57.873c0 6.893 5.607 12.5 12.5 12.5h42.899l-8.78 14.122c-2.302 3.702-3.52 7.957-3.52 12.302 0 8.126 4.117 15.537 11.012 19.824 3.745 2.328 7.972 3.526 12.274 3.526 1.777 0 3.567-.205 5.341-.618 6.068-1.415 11.221-5.108 14.511-10.4l21.103-33.938c.957-1.54 1.71-3.157 2.279-4.817h102.876c6.893 0 12.5-5.607 12.5-12.5v-6.007h30.173l-30.694 30.694c-2.929 2.93-2.929 7.678 0 10.607 1.464 1.464 3.384 2.196 5.303 2.196s3.839-.732 5.303-2.196l41.302-41.302h28.786l-30.694 30.694c-2.929 2.93-2.929 7.678 0 10.607 1.464 1.464 3.384 2.196 5.303 2.196s3.839-.732 5.303-2.196l41.302-41.302h42.117c10.22 0 19.536-5.612 24.312-14.647s4.168-19.894-1.587-28.339l-8.858-12.999 20.671-20.671c2.929-2.93 2.929-7.678 0-10.607-2.929-2.928-7.678-2.928-10.606 0l-18.662 18.663-11.666-17.12 20.935-20.935c2.929-2.93 2.929-7.678 0-10.607-2.929-2.928-7.678-2.928-10.606 0l-18.926 18.927-16.803-24.657c-2.332-3.423-6.997-4.306-10.421-1.974-3.423 2.332-4.307 6.998-1.974 10.421l18.403 27.005-72.542 72.542h-45.173v-36.866c0-6.893-5.607-12.5-12.5-12.5h-17.614l71.481-104.895c2.365-3.471 6.13-5.461 10.33-5.461s7.965 1.99 10.33 5.461l17.652 25.902c2.333 3.424 6.999 4.308 10.421 1.974 3.423-2.332 4.307-6.998 1.974-10.421l-17.652-25.902c-3.692-5.417-9.135-9.25-15.29-10.979v-19.78h130.064c6.893 0 12.5-5.607 12.5-12.5v-21.653c0-6.894-5.607-12.502-12.5-12.502zm-35.363 220.582c2.656 3.896 2.925 8.712.721 12.881s-6.335 6.658-11.051 6.658h-27.117l30.189-30.189zm-27.522-40.387 11.666 17.12-42.806 42.806h-28.786zm-82.179-180.195h-39.917c.853-5.495 1.315-11.064 1.383-16.653h38.534zm76.031-31.653h-237.727v-16.653h237.727zm-123.619-31.653c-5.74-13.675-14.084-26.193-24.505-36.799l11.685-7.266 21.617 13.442c3.798 2.361 8.057 3.542 12.316 3.542s8.519-1.181 12.318-3.542l14.155-8.801v39.424zm-87.757-75.933c1.173-1.889 3.013-3.206 5.178-3.711.633-.148 1.271-.221 1.906-.221 1.536 0 3.045.428 4.382 1.259l25.576 15.905c2.426 1.508 5.497 1.508 7.921 0l25.578-15.905c2.71-1.687 6.081-1.688 8.793 0l25.578 15.907c2.426 1.508 5.497 1.508 7.921 0l25.582-15.906c2.712-1.686 6.082-1.685 8.793 0l33.938 21.102c3.899 2.424 5.099 7.568 2.674 11.468-1.531 2.463-4.18 3.933-7.086 3.933-1.543 0-3.058-.435-4.381-1.258l-25.582-15.906c-2.426-1.508-5.496-1.509-7.921 0l-25.581 15.905c-2.714 1.687-6.084 1.687-8.795.001l-25.577-15.905c-2.425-1.508-5.496-1.508-7.921 0l-25.577 15.905c-2.713 1.685-6.083 1.686-8.794 0l-33.934-21.103c-1.889-1.174-3.207-3.014-3.711-5.18s-.136-4.399 1.04-6.29zm-204.091 121.148c0-26.468 21.533-48 48-48s48 21.532 48 48-21.533 48-48 48-48-21.533-48-48zm85.308 223.845h40.397l-8.779 14.117c-4.723 7.597-4.723 17.035 0 24.634l8.78 14.122h-40.399v-52.873zm79.601 64.771-21.102 33.938c-1.174 1.889-3.014 3.207-5.18 3.712-2.167.504-4.398.136-6.288-1.038-2.462-1.531-3.933-4.18-3.933-7.086 0-1.543.435-3.058 1.258-4.382l15.906-25.582c1.508-2.425 1.508-5.495 0-7.92l-15.905-25.581c-1.686-2.713-1.686-6.083 0-8.794l15.905-25.577c1.508-2.426 1.508-5.496 0-7.921l-15.904-25.578c-1.686-2.712-1.686-6.083 0-8.794l21.102-33.934c1.175-1.889 3.015-3.207 5.181-3.712.633-.147 1.272-.221 1.906-.221 1.536 0 3.045.428 4.382 1.26 1.889 1.174 3.207 3.013 3.711 5.178.505 2.167.136 4.4-1.039 6.289l-15.905 25.575c-1.508 2.425-1.508 5.496 0 7.921l15.905 25.579c1.687 2.712 1.686 6.081 0 8.793l-15.906 25.577c-1.508 2.425-1.508 5.496 0 7.921l15.906 25.582c1.686 2.713 1.686 6.083 0 8.795zm115.394-11.898h-100.376c-.569-1.66-1.322-3.277-2.279-4.816l-13.443-21.622 13.443-21.617c.957-1.54 1.711-3.157 2.28-4.817h100.376v52.872zm-100.375-67.873c-.569-1.66-1.323-3.278-2.28-4.817l-13.442-21.618 7.398-11.896h101.555l-26.122 38.332h-67.109zm159.508-124.284c-6.102 1.745-11.495 5.563-15.161 10.942l-40.894 60.01h-103.295c1.258-3.954 1.436-8.188.47-12.333-1.415-6.069-5.109-11.224-10.399-14.512-5.291-3.291-11.545-4.327-17.615-2.909-6.068 1.415-11.222 5.107-14.513 10.398l-12.036 19.355h-95.084c-1.378 0-2.5-1.121-2.5-2.5v-93.148c6.171 2.025 12.753 3.135 19.592 3.135 11.752 0 22.757-3.243 32.182-8.869 8.052 15.395 19.498 28.913 33.459 39.417 1.351 1.017 2.934 1.507 4.503 1.507 2.276 0 4.525-1.032 5.999-2.991 2.49-3.31 1.826-8.012-1.484-10.502-12.901-9.706-23.335-22.362-30.397-36.783 11.56-11.427 18.737-27.279 18.737-44.779 0-17.501-7.179-33.354-18.74-44.781 17.064-34.9 52.565-57.219 91.662-57.219 3.181 0 6.375.149 9.533.441 1.531 1.781 3.335 3.343 5.386 4.619l33.935 21.104c6.498 4.039 14.339 4.611 21.225 1.742 8.776 8.307 16.021 18.11 21.362 28.88h-100.123c-6.893 0-12.5 5.607-12.5 12.5v21.653c0 6.893 5.607 12.5 12.5 12.5h110.662c-.078 5.6-.604 11.177-1.583 16.653h-26.818c-6.893 0-12.5 5.607-12.5 12.5v21.653c0 6.893 5.607 12.5 12.5 12.5h5.261c-19.262 23.54-47.861 37.255-78.839 37.255-11.098 0-22.008-1.77-32.427-5.26-3.928-1.316-8.178.801-9.494 4.729-1.315 3.928.802 8.178 4.729 9.493 11.958 4.006 24.472 6.037 37.192 6.037 39.531 0 75.687-19.461 97.469-52.255h58.045v19.818z"/></g></svg>