<svg id="Capa_1" enable-background="new 0 0 512 512" height="512" viewBox="0 0 512 512" width="512" xmlns="http://www.w3.org/2000/svg"><g><path d="m497.521 12.944c-8.347-8.347-19.444-12.944-31.248-12.944s-22.902 4.597-31.249 12.943l-36.202 36.203c-30.963-8.885-65.725-1.169-90.071 23.177-11.083 11.083-18.716 24.325-22.913 38.384l-113.087 59.745-33.382-33.383c-3.929-3.928-10.297-3.928-14.226 0-3.928 3.928-3.928 10.297 0 14.226l28.992 28.992-71.879 37.975c-23.47 12.399-36.45 36.958-35.319 61.867l-40.324 23.121c-4.819 2.764-6.485 8.911-3.722 13.73 1.859 3.242 5.248 5.057 8.736 5.057 1.697 0 3.417-.43 4.994-1.334l34.658-19.873c.939 2.44 2.013 4.854 3.264 7.222 1.246 2.359 3.378 4.126 5.927 4.913 2.54.786 5.304.531 7.665-.717l142.614-75.345 64.23 64.229-75.344 142.614c-2.595 4.912-.717 10.998 4.194 13.593 2.99 1.622 6.136 3.131 9.269 4.291l-20.245 35.307c-2.763 4.819-1.097 10.966 3.722 13.729 1.579.904 3.298 1.334 4.994 1.334 3.487 0 6.877-1.815 8.736-5.057l23.592-41.144c.808.029 1.615.049 2.421.049 23.862 0 46.962-12.874 58.862-35.398l37.72-71.398 26.268 26.269c1.965 1.964 4.538 2.946 7.113 2.946s5.148-.982 7.113-2.946c3.928-3.929 3.928-10.298 0-14.226l-30.659-30.659 62.075-117.497c12.169-4.421 23.587-11.483 33.331-21.226 24.346-24.346 32.062-59.108 23.177-90.071l36.202-36.203c17.232-17.23 17.231-45.266.001-62.495zm-405.868 223.105 190.381-100.58c-.212 12.669 2.181 25.367 7.186 37.224l-220.615 116.553c-5.608-20.476 3.515-42.876 23.048-53.197zm137.714-8.982 69.683-36.814c2.876 4.015 6.097 7.856 9.701 11.46 4.075 4.075 8.453 7.66 13.044 10.804l-36.981 69.999zm48.026 193.986c-10.61 20.084-33.989 29.164-54.923 22.539l117.078-221.607c10.857 4.314 22.376 6.483 33.899 6.483 1.935 0 3.868-.083 5.8-.205zm146.523-233.566c-27.83 27.83-73.11 27.829-100.939 0s-27.829-73.109 0-100.938c13.915-13.915 32.192-20.872 50.47-20.872 18.277 0 36.554 6.957 50.469 20.872 27.829 27.829 27.829 73.109 0 100.938zm59.38-126.273-30.42 30.42c-3.945-6.91-8.843-13.42-14.734-19.312-5.891-5.891-12.402-10.788-19.312-14.733l30.42-30.42c9.386-9.387 24.659-9.386 34.045 0 9.387 9.387 9.387 24.659.001 34.045z"/><path d="m373.446 97.701c-10.502 0-20.375 4.09-27.802 11.516-15.329 15.33-15.329 40.272 0 55.603 7.426 7.426 17.3 11.515 27.802 11.515 10.503 0 20.376-4.089 27.802-11.515s11.516-17.299 11.516-27.801-4.089-20.376-11.516-27.802c-7.425-7.426-17.299-11.516-27.802-11.516zm13.576 52.893c-3.626 3.626-8.447 5.623-13.576 5.623-5.128 0-9.95-1.997-13.576-5.623-7.485-7.486-7.485-19.667 0-27.151 3.625-3.626 8.448-5.624 13.576-5.624 5.129 0 9.95 1.997 13.576 5.624 3.627 3.626 5.624 8.447 5.624 13.576 0 5.127-1.997 9.948-5.624 13.575z"/><path d="m83.866 41.87c10.303 0 18.656-8.353 18.656-18.656s-8.352-18.656-18.656-18.656-18.656 8.353-18.656 18.656 8.352 18.656 18.656 18.656z"/><path d="m276.014 47.47c4.363 0 7.901-3.537 7.901-7.901 0-4.363-3.537-7.9-7.901-7.9s-7.901 3.537-7.901 7.9c0 4.364 3.537 7.901 7.901 7.901z"/><path d="m11.26 144.471 15.833 7.133c.678.306 1.215.91 1.487 1.673l6.338 17.821c.895 2.518 4.062 2.518 4.957 0l6.338-17.821c.271-.763.808-1.368 1.486-1.673l15.833-7.133c2.237-1.008 2.237-4.572 0-5.58l-15.833-7.133c-.678-.306-1.215-.91-1.486-1.673l-6.338-17.821c-.895-2.518-4.062-2.518-4.957 0l-6.338 17.821c-.271.763-.809 1.368-1.487 1.673l-15.833 7.133c-2.237 1.008-2.237 4.572 0 5.58z"/><path d="m152.688 51.231 21.756 9.617c.932.412 1.67 1.227 2.042 2.256l8.708 24.024c1.23 3.394 5.582 3.394 6.812 0l8.708-24.024c.373-1.029 1.111-1.844 2.043-2.256l21.756-9.617c3.074-1.358 3.074-6.163 0-7.521l-21.756-9.617c-.931-.412-1.67-1.227-2.043-2.256l-8.708-24.024c-1.23-3.394-5.582-3.394-6.812 0l-8.708 24.024c-.373 1.029-1.111 1.844-2.042 2.256l-21.756 9.617c-3.074 1.358-3.074 6.163 0 7.521z"/></g></svg>